<!DOCTYPE svg PUBLIC "-//W3C//DTD SVG 1.1//EN" "http://www.w3.org/Graphics/SVG/1.1/DTD/svg11.dtd">
<!-- Uploaded to: SVG Repo, www.svgrepo.com, Transformed by: SVG Repo Mixer Tools -->
<svg version="1.0" id="Layer_1" xmlns="http://www.w3.org/2000/svg" xmlns:xlink="http://www.w3.org/1999/xlink" width="189px" height="189px" viewBox="0 0 64 64" enable-background="new 0 0 64 64" xml:space="preserve" fill="#000000">
<g id="SVGRepo_bgCarrier" stroke-width="0"/>
<g id="SVGRepo_tracerCarrier" stroke-linecap="round" stroke-linejoin="round"/>
<g id="SVGRepo_iconCarrier"> <g> <path fill="#2bf7cb" d="M56,0H8C5.789,0,4,1.789,4,4v52c0,4.418,3.582,8,8,8h44c2.211,0,4-1.789,4-4V4C60,1.789,58.211,0,56,0z M52,56H16c-2.211,0-4-1.789-4-4s1.789-4,4-4h36V56z M52,40H12V8h40V40z"/> <path fill="#fdd226" d="M52,56H16c-2.211,0-4-1.789-4-4s1.789-4,4-4h36V56z"/> <rect x="12" y="8" fill="#1a1a1a" width="40" height="32"/> </g> </g>
</svg>